<svg xmlns="http://www.w3.org/2000/svg" id="base_copy_5" data-name="base copy 5" viewBox="0 0 126 126">
  <defs>
    <style>
      .cls-1{fill:#ff59fe;fill-rule:evenodd}
    </style>
  </defs>
  <path d="M4 122v-20l20 20H4Zm118 0v-20l-20 20h20Zm0-118v20L102 4h20ZM4 4v20L24 4H4Z" class="cls-1"/>
  <path id="_" d="M66.058 99.2v-7.441a1.674 1.674 0 0 0-1.952-1.83H55.2V99.2a1.673 1.673 0 0 0 1.952 1.83h6.953a1.674 1.674 0 0 0 1.952-1.83Zm18.481-62.944a13.6 13.6 0 0 0-3.111-4.148l-3.9-3.9a12.7 12.7 0 0 0-9.393-3.537H55.567a26.954 26.954 0 0 0-5.916.488 21.3 21.3 0 0 0-5.062 2.2l-6.465 3.66 3.294 6.1 7.807-3.416a15.309 15.309 0 0 1 5.855-1.1h11.71a6.268 6.268 0 0 1 4.635 1.697l3.294 3.3a5.722 5.722 0 0 1 1.83 4.148v6.587a7.192 7.192 0 0 1-.793 3.66 8.8 8.8 0 0 1-2.867 2.684l-12.809 8.3a8 8 0 0 0-3.48 3.407 11.934 11.934 0 0 0-.549 5.367l.249 4.88h7.929l.244-5.123a3.589 3.589 0 0 1 1.708-3.05l12.687-8.3a14.8 14.8 0 0 0 5-4.94 15.036 15.036 0 0 0 1.342-7.01v-6.1a17.836 17.836 0 0 0-.671-5.854Z" class="cls-1" data-name="?"/>
</svg>
