<svg xmlns="http://www.w3.org/2000/svg" viewBox="0 0 988 980">
  <defs>
    <style>
      .cls-1 {
        fill-rule: evenodd;
      }
    </style>
  </defs>
  <path id="Shape_1_copy" data-name="Shape 1 copy" class="cls-1" fill="currentColor" d="M874,553l-11,50,67,108L799,879,682,837l-46,22L595,980H385L344,859l-46-22L181,879,50,711l67-108-11-50L0,485,47,275l123-14,32-40L188,93,377,0l88,91h50L603,0,792,93,778,221l32,40,123,14,47,210Zm-2-208L771,334l-71-91,12-104L619,93l-72,74H433L361,93l-93,46,12,104-71,91L108,345,85,449l87,55,25,113-55,89,65,82,96-34,102,50,33,99H542l33-99,102-50,96,34,65-82-55-89,25-113,87-55ZM490.5,683C384.185,683,298,596.815,298,490.5S384.185,298,490.5,298,683,384.185,683,490.5,596.815,683,490.5,683Zm0-324A131.5,131.5,0,1,0,622,490.5,131.5,131.5,0,0,0,490.5,359Z"/>
</svg>
