<svg xmlns="http://www.w3.org/2000/svg" viewBox="0 0 256 256">
  <style>
    .outer{fill:currentColor;fill-rule:evenodd}
    .inner{fill:white;fill-rule:evenodd}
  </style>
  <!-- Down button -->
  <path class="outer" d="M154 231h-26s.029-88 0-88a10.1 10.1 0 0 1 7 3s30 26.871 30 30v44c0 11.768-11 11-11 11Zm-26 0h-26s-11 .768-11-11v-44c0-3.129 30-30 30-30a10.1 10.1 0 0 1 7-3c-.029 0 0 88 0 88Zm-1-8h-26a1.945 1.945 0 0 1-2-2v-42l26-26s2.421-3.579 6 0l26 26v42a1.923 1.923 0 0 1-2 2h-28Z"/>
  <path class="inner" d="M127 223h-26a1.945 1.945 0 0 1-2-2v-42l26-26s2.421-3.579 6 0l26 26v42a1.923 1.923 0 0 1-2 2h-28Z"/>
  
  <!-- Up button -->
  <path class="outer" d="M154 25h-26s.029 88 0 88a10.1 10.1 0 0 0 7-3s30-26.871 30-30V36c0-11.768-11-11-11-11Zm-26 0h-26s-11-.768-11 11v44c0 3.129 30 30 30 30a10.1 10.1 0 0 0 7 3c-.029 0 0-88 0-88Zm-1 8h-26a1.944 1.944 0 0 0-2 2v42l26 26s2.421 3.579 6 0l26-26V35a1.923 1.923 0 0 0-2-2h-28Z"/>
  <path class="inner" d="M127 33h-26a1.944 1.944 0 0 0-2 2v42l26 26s2.421 3.579 6 0l26-26V35a1.923 1.923 0 0 0-2-2h-28Z"/>
  
  <!-- Left button -->
  <path class="outer" d="M25 102v26s88-.029 88 0a10.1 10.1 0 0 0-3-7S83.129 91 80 91H36c-11.768 0-11 11-11 11Zm0 26v26s-.768 11 11 11h44c3.129 0 30-30 30-30a10.1 10.1 0 0 0 3-7c0 .029-88 0-88 0Zm8 1v26a1.944 1.944 0 0 0 2 2h42l26-26s3.579-2.421 0-6L77 99H35a1.923 1.923 0 0 0-2 2v28Z"/>
  <path class="inner" d="M33 129v26a1.944 1.944 0 0 0 2 2h42l26-26s3.579-2.421 0-6L77 99H35a1.923 1.923 0 0 0-2 2v28Z"/>
  
  <!-- Right button -->
  <path class="outer" d="M231 102v26s-88-.029-88 0a10.1 10.1 0 0 1 3-7s26.871-30 30-30h44c11.768 0 11 11 11 11Zm0 26v26s.768 11-11 11h-44c-3.129 0-30-30-30-30a10.1 10.1 0 0 1-3-7c0 .029 88 0 88 0Zm-8 1v26a1.945 1.945 0 0 1-2 2h-42l-26-26s-3.579-2.421 0-6l26-26h42a1.923 1.923 0 0 1 2 2v28Z"/>
  <path class="inner" d="M223 129v26a1.945 1.945 0 0 1-2 2h-42l-26-26s-3.579-2.421 0-6l26-26h42a1.923 1.923 0 0 1 2 2v28Z"/>
</svg>
